<svg id="Layer_1" data-name="Layer 1" xmlns="http://www.w3.org/2000/svg" viewBox="0 0 100 100"><defs><style>.cls-1{fill:#fff;}</style></defs><path class="cls-1" d="M58.771,50,90.3928,18.3782a2.512,2.512,0,0,0,0-3.5525L85.1743,9.6072a2.512,2.512,0,0,0-3.5525,0L50,41.229,18.3782,9.6072a2.512,2.512,0,0,0-3.5525,0L9.6073,14.8257a2.5118,2.5118,0,0,0,0,3.5525L41.2291,50,9.6073,81.6218a2.5118,2.5118,0,0,0,0,3.5525l5.2184,5.2185a2.512,2.512,0,0,0,3.5525,0L50,58.7709,81.6218,90.3928a2.512,2.512,0,0,0,3.5525,0l5.2185-5.2185a2.512,2.512,0,0,0,0-3.5525Z"/></svg>