<svg id="Layer_1" data-name="Layer 1" xmlns="http://www.w3.org/2000/svg" viewBox="0 0 384.4404 337.8716"><defs><style>.cls-1{fill:#ffa95a;}.cls-1,.cls-3{stroke:#5b595a;stroke-miterlimit:10;}.cls-2{fill:#fff;}.cls-3{fill:#3686ff;}</style></defs><path class="cls-1" d="M55.6037,96.6976C16.54,171.1,43.4608,262.5158,115.553,303.3591l78.4635-133.9906L346.4238,170.44c1.0381-56.6046-28.9567-111.5435-82.2128-139.5046C188.8444-8.634,95.4478,20.8086,55.6037,96.6976Z"/><path class="cls-2" d="M134.3576,100.6152h-4.4029l-.7285,2.0922h-2.3286l3.9756-10.9965h2.582l3.9751,10.9965h-2.3437ZM132.1564,94.26l-1.6,4.5932h3.2Z"/><path class="cls-2" d="M139.2662,95.8012h-1.0454V93.9921h1.0454V91.8368h2.233v2.1553h1.9643v1.8091h-1.9643v4.2163c0,.582.2378.8335.9345.8335h1.03v1.8564H142.07c-1.6787,0-2.8033-.708-2.8033-2.706Z"/><path class="cls-2" d="M145.4108,95.8012h-1.0454V93.9921h1.0454V91.8368h2.2329v2.1553h1.9643v1.8091h-1.9643v4.2163c0,.582.2378.8335.9346.8335h1.03v1.8564h-1.394c-1.6787,0-2.8032-.708-2.8032-2.706Z"/><path class="cls-2" d="M155.04,102.849a4.5,4.5,0,0,1,0-8.9985,4.1054,4.1054,0,0,1,4.3237,4.3106,5.1268,5.1268,0,0,1-.063.85h-6.4145a2.0467,2.0467,0,0,0,2.1064,2.0136A1.8088,1.8088,0,0,0,156.75,99.97h2.3916A4.0753,4.0753,0,0,1,155.04,102.849Zm-2.1382-5.3173h4.1655a1.9445,1.9445,0,0,0-2.0908-1.8721A2.0326,2.0326,0,0,0,152.9015,97.5317Z"/><path class="cls-2" d="M167.1237,97.8935a1.9726,1.9726,0,1,0-3.9283,0v4.8139h-2.2172V93.9921h2.2172v1.0855a3.2873,3.2873,0,0,1,2.6456-1.2115c2.0429,0,3.5,1.3213,3.5,3.7285v5.1128h-2.2173Z"/><path class="cls-2" d="M174.9,93.8505a3.6089,3.6089,0,0,1,2.8667,1.353V91.0658h2.2491v11.6416h-2.2491v-1.29a3.3238,3.3238,0,0,1-2.8828,1.4316c-2.2334,0-4.0073-1.809-4.0073-4.5307S172.65,93.8505,174.9,93.8505Zm.5542,1.9351a2.3313,2.3313,0,0,0-2.3125,2.5327,2.3883,2.3883,0,0,0,2.3125,2.5957,2.5762,2.5762,0,0,0,0-5.1284Z"/><path class="cls-2" d="M181.9464,91.6635a1.3641,1.3641,0,1,1,1.3618,1.29A1.2957,1.2957,0,0,1,181.9464,91.6635Zm.2373,2.3286h2.2173v8.7153h-2.2173Z"/><path class="cls-2" d="M192.7316,97.8935a1.9726,1.9726,0,1,0-3.9282,0v4.8139h-2.2173V93.9921h2.2173v1.0855a3.2867,3.2867,0,0,1,2.645-1.2115c2.0434,0,3.5005,1.3213,3.5005,3.7285v5.1128h-2.2173Z"/><path class="cls-2" d="M200.4913,93.8505a3.4411,3.4411,0,0,1,2.8985,1.3843V93.9921h2.2334V102.77a3.9967,3.9967,0,0,1-4.34,4.232c-2.4707,0-4.1972-1.2271-4.4189-3.2251h2.2017A2.2689,2.2689,0,0,0,203.39,102.77v-1.353a3.467,3.467,0,0,1-2.8985,1.4316c-2.2334,0-4.0073-1.809-4.0073-4.5307S198.2579,93.8505,200.4913,93.8505Zm.57,1.9351a2.3312,2.3312,0,0,0-2.3125,2.5327,2.3882,2.3882,0,0,0,2.3125,2.5957,2.5762,2.5762,0,0,0,0-5.1284Z"/><path class="cls-2" d="M136.1315,118.4438a1.87,1.87,0,0,0-2.0191-1.7456c-1.83,0-2.5424,1.5337-2.5659,4.86a4.2489,4.2489,0,0,1,3.6822-1.77c3.0175,0,5.1557,1.958,5.1557,5.5439,0,3.42-2.1855,5.7793-5.9155,5.7793-5.2271,0-6.51-3.68-6.51-8.8227,0-5.8975,1.853-8.8462,6.3433-8.8462a5.2049,5.2049,0,0,1,5.6069,5.001Zm-4.2525,6.8413a2.205,2.205,0,0,0,2.4234,2.4062,2.3606,2.3606,0,0,0-.0474-4.7182A2.1972,2.1972,0,0,0,131.879,125.2851Z"/><path class="cls-2" d="M153.7579,113.82v2.9961l-5.9628,14.2012h-4.1578l6.0342-13.7529h-7.3887V113.82Z"/><path class="cls-2" d="M159.0309,114.1508a3.9866,3.9866,0,1,1-3.9678,3.9863A3.6853,3.6853,0,0,1,159.0309,114.1508Zm-1.1641,3.9863c0,1.1089.4278,1.6045,1.14,1.6045s1.164-.4956,1.164-1.6045c0-1.1323-.4511-1.6274-1.164-1.6274S157.8668,117.0048,157.8668,118.1371Zm9.4082-3.727h3.92l-9.147,16.6074h-3.92Zm3.0411,8.8935a3.9868,3.9868,0,1,1-3.9439,3.9868A3.6738,3.6738,0,0,1,170.3161,123.3036Zm-1.1646,3.9868c0,1.1084.4277,1.6041,1.1406,1.6041s1.1641-.4957,1.1641-1.6041-.4512-1.6279-1.1641-1.6279S169.1515,126.1816,169.1515,127.29Z"/><path class="cls-3" d="M198.8267,178.4454,123.34,307.3525c1.3738.7778,2.7585,1.5433,4.1663,2.2824,72.5273,38.0791,162.4055,9.7457,200.7485-63.2843a149.552,149.552,0,0,0,17.218-66.8739Z"/><path class="cls-2" d="M222.7462,212.7138V223.71h-2.2173l-5.021-7.5357V223.71h-2.2172V212.7138h2.2172l5.021,7.5513v-7.5513Z"/><path class="cls-2" d="M228.8273,223.852a4.5,4.5,0,1,1,4.5771-4.5A4.3729,4.3729,0,0,1,228.8273,223.852Zm0-1.9195a2.3264,2.3264,0,0,0,2.2964-2.58,2.27,2.27,0,1,0-4.4981,0C226.6256,221.0829,227.6393,221.9325,228.8273,221.9325Z"/><path class="cls-2" d="M235.3829,216.8041h-1.0454V214.995h1.0454V212.84h2.2334v2.1552H239.58v1.8091h-1.9639V221.02c0,.5821.2374.8335.9341.8335h1.03V223.71h-1.394c-1.6787,0-2.8033-.708-2.8033-2.7061Z"/><path class="cls-2" d="M216.7277,233.727a3.4774,3.4774,0,0,1,2.8984,1.3842v-1.2426H221.86v8.7153h-2.2334V241.31a3.467,3.467,0,0,1-2.9141,1.416c-2.2177,0-3.9917-1.8091-3.9917-4.5308S214.4943,233.727,216.7277,233.727Zm.57,1.935a2.3313,2.3313,0,0,0-2.3125,2.5327,2.3881,2.3881,0,0,0,2.3125,2.5957,2.5762,2.5762,0,0,0,0-5.1284Z"/><path class="cls-2" d="M224.3766,235.6777h-1.0454v-1.8091h1.0454v-2.1553H226.61v2.1553h1.9644v1.8091H226.61v4.2163c0,.582.2378.8335.9346.8335h1.03v1.8564H227.18c-1.6787,0-2.8032-.708-2.8032-2.7061Z"/><path class="cls-2" d="M230.5211,235.6777h-1.0454v-1.8091h1.0454v-2.1553h2.2329v2.1553h1.9644v1.8091H232.754v4.2163c0,.582.2378.8335.9346.8335h1.03v1.8564h-1.394c-1.6788,0-2.8033-.708-2.8033-2.7061Z"/><path class="cls-2" d="M240.15,242.7255a4.5,4.5,0,0,1,0-8.9985,4.1054,4.1054,0,0,1,4.3238,4.31,5.1376,5.1376,0,0,1-.063.85h-6.4146a2.0469,2.0469,0,0,0,2.1065,2.0137,1.8091,1.8091,0,0,0,1.7578-1.0542h2.3916A4.0754,4.0754,0,0,1,240.15,242.7255Zm-2.1381-5.3174h4.1655a1.9445,1.9445,0,0,0-2.0908-1.872A2.0325,2.0325,0,0,0,238.0119,237.4081Z"/><path class="cls-2" d="M252.2335,237.77a1.9726,1.9726,0,1,0-3.9282,0v4.814H246.088v-8.7153h2.2173v1.0854a3.2869,3.2869,0,0,1,2.645-1.2114c2.0435,0,3.5,1.3213,3.5,3.7285v5.1128h-2.2173Z"/><path class="cls-2" d="M260.0094,233.727a3.6093,3.6093,0,0,1,2.8667,1.353v-4.1377h2.249v11.6416h-2.249v-1.29a3.3239,3.3239,0,0,1-2.8828,1.4316c-2.2334,0-4.0073-1.8091-4.0073-4.5308S257.76,233.727,260.0094,233.727Zm.5542,1.935a2.3313,2.3313,0,0,0-2.3125,2.5327,2.3881,2.3881,0,0,0,2.3125,2.5957,2.5762,2.5762,0,0,0,0-5.1284Z"/><path class="cls-2" d="M267.0563,231.54a1.3641,1.3641,0,1,1,1.3618,1.29A1.2961,1.2961,0,0,1,267.0563,231.54Zm.2373,2.3286h2.2173v8.7153h-2.2173Z"/><path class="cls-2" d="M277.8419,237.77a1.9726,1.9726,0,1,0-3.9282,0v4.814h-2.2173v-8.7153h2.2173v1.0854a3.2869,3.2869,0,0,1,2.645-1.2114c2.0435,0,3.5,1.3213,3.5,3.7285v5.1128h-2.2173Z"/><path class="cls-2" d="M285.6017,233.727a3.4411,3.4411,0,0,1,2.8984,1.3842v-1.2426h2.2334v8.7783a3.9966,3.9966,0,0,1-4.34,4.2319c-2.4707,0-4.1973-1.227-4.419-3.2251h2.2017a2.2689,2.2689,0,0,0,4.3237-1.0068v-1.353a3.4671,3.4671,0,0,1-2.8984,1.4316c-2.2334,0-4.0073-1.8091-4.0073-4.5308S283.3683,233.727,285.6017,233.727Zm.57,1.935a2.3313,2.3313,0,0,0-2.3125,2.5327,2.3881,2.3881,0,0,0,2.3125,2.5957,2.5762,2.5762,0,0,0,0-5.1284Z"/><path class="cls-2" d="M219.3253,253.2724c3.6587,0,5.63,2.0757,5.63,4.67a3.9067,3.9067,0,0,1-2.6133,3.8691v.0943a4.0261,4.0261,0,0,1,2.9224,4.1518c0,2.9014-2.0908,4.9776-5.7256,4.9776-3.6113,0-6.2246-1.6988-6.3433-5.5909H217.14a2.065,2.065,0,0,0,2.2568,2.2408,1.8022,1.8022,0,0,0,1.9483-1.9341c0-1.5332-.9268-2.147-3.0411-2.147h-.76v-3.2788h.76c1.378,0,2.7081-.33,2.7081-1.8872a1.6376,1.6376,0,0,0-1.7818-1.793,1.7979,1.7979,0,0,0-1.853,1.8872h-3.9678C213.5519,255.1357,215.7853,253.2724,219.3253,253.2724Z"/><path class="cls-2" d="M233.6974,253.2724c3.6587,0,5.63,2.0757,5.63,4.67a3.9067,3.9067,0,0,1-2.6133,3.8691v.0943a4.0261,4.0261,0,0,1,2.9224,4.1518c0,2.9014-2.0909,4.9776-5.7256,4.9776-3.6114,0-6.2246-1.6988-6.3433-5.5909h3.9439a2.065,2.065,0,0,0,2.2568,2.2408,1.8021,1.8021,0,0,0,1.9482-1.9341c0-1.5332-.9267-2.147-3.041-2.147h-.76v-3.2788h.76c1.3779,0,2.708-.33,2.708-1.8872a1.6375,1.6375,0,0,0-1.7817-1.793,1.7978,1.7978,0,0,0-1.853,1.8872h-3.9678C227.924,255.1357,230.1574,253.2724,233.6974,253.2724Z"/><path class="cls-2" d="M245.6456,254.0273a3.9866,3.9866,0,1,1-3.9677,3.9863A3.6853,3.6853,0,0,1,245.6456,254.0273Zm-1.164,3.9863c0,1.1089.4277,1.6045,1.14,1.6045s1.1641-.4956,1.1641-1.6045c0-1.1323-.4512-1.6275-1.1641-1.6275S244.4816,256.8813,244.4816,258.0136Zm9.4082-3.7271h3.92l-9.147,16.6075h-3.92Zm3.041,8.8936a3.9868,3.9868,0,1,1-3.9438,3.9868A3.6737,3.6737,0,0,1,256.9308,263.18Zm-1.1641,3.9868c0,1.1084.4273,1.604,1.14,1.604s1.164-.4956,1.164-1.604-.4511-1.6279-1.164-1.6279S255.7667,266.058,255.7667,267.1669Z"/></svg>