<svg id="Layer_1" data-name="Layer 1" xmlns="http://www.w3.org/2000/svg" viewBox="0 0 692.2569 377.8349"><defs><style>.cls-1,.cls-7{fill:#ffa95a;}.cls-2{fill:#ed7367;}.cls-3,.cls-8{fill:#3686ff;}.cls-4{fill:#2765c1;}.cls-5{fill:#ec7368;}.cls-6{fill:#4f4e4e;}.cls-7,.cls-8,.cls-9{stroke:#5b595a;stroke-miterlimit:10;}.cls-9{fill:#ed6759;}</style></defs><path class="cls-1" d="M48.4031,304.01c2.8244-1.4543,6.0211-1.1319,8.9927-1.8835a38.3825,38.3825,0,0,1,9.5453-2.6382c24.0553-4.0892,48.1649-7.8661,72.1391-12.4184,3.1094-.59,6.2977.2161,9.3217-.8888l4.2161.0919c14.176.7186,27.8959,4.3811,41.8527,6.5159a29.9859,29.9859,0,0,0,9.9165-.0324c31.1542-5.5177,62.3007-11.0852,93.4954-16.3653,30.2119-5.1137,60.4895-9.8391,90.7095-14.9081a17.3528,17.3528,0,0,1,11.5463,1.8387c10.5758,5.64,21.6455,10.326,31.9651,16.469C450.5019,289.114,469,298.2375,487.4228,307.51a38.6952,38.6952,0,0,0,10.92,3.3692c27.851,4.8482,55.7333,9.525,83.5253,14.6989,7.3847,1.3747,14.6165.265,21.8308-.3677q35.5006-3.1137,70.9723-6.5908a12.9855,12.9855,0,0,1,1.4961-.0048c2.984.7726,6.1264-1.8315,9.042.4107.0266,6.8293-.1514,13.668.1586,20.4844.1776,3.9026-1.3486,5.1235-4.934,4.6416a18.8977,18.8977,0,0,0-2.4969-.0158q-332.6322,0-665.2645,0c-7.2485,0-7.261-.0015-7.2443-7.2231.007-2.9972.0806-5.9942.1239-8.9913a6.8158,6.8158,0,0,1,3.25-2.9415c13.4346-6.3672,25.9989-14.4724,39.88-19.9561C50.0419,304.4861,48.193,304.4416,48.4031,304.01Z"/><path class="cls-2" d="M477.4686,241.1138c8.0552-8.1115,17.5375-14.0332,27.7665-19.0923q39.3615-19.4679,78.3807-39.6234c3.8895-2.0011,5.438-1.26,7.7019,2.2212q37.4315,57.5616,75.1947,114.9074a1.45,1.45,0,0,1-.6058,1.331c-1.994,1.333-4.3446,1.6323-6.5894,2.2144-21.4412,5.5605-43.0947,10.2691-64.4961,15.9747-4.8276,1.287-8.444.5313-12.43-2.4825-28.161-21.2914-56.2449-42.6857-84.5232-63.8226-4.8574-3.6308-9.7848-6.8539-15.7216-8.4047C480.2961,243.8538,478.1352,243.4713,477.4686,241.1138Z"/><path class="cls-3" d="M431.3538,280.7982c-9.7934-4.9325-19.7821-9.5214-29.305-14.93-5.4605-3.1014-10.679-3.452-16.5923-2.4481-39.4342,6.6951-78.905,13.1748-118.3436,19.8439-21.4411,3.6258-42.8506,7.4406-64.2569,11.2677-6.98,1.2478-13.4612-1.2682-20.0919-2.4085-10.0838-1.7341-20.3414-2.6615-30.1464-5.8505q40.0809-6.7921,80.1627-13.5751,28.7772-4.8351,57.5829-9.5a36.9014,36.9014,0,0,0,10.8684-3.4138q44.6243-22.4113,89.3192-44.6824c1.888-.9433,3.529-2.0088,6.0286-1.1429,26.5465,9.1967,53.1481,18.235,79.7346,27.3168.5323,2.23-1.1149,3.3807-2.459,4.4845-13.1825,10.8263-26.0813,21.9879-39.1252,32.9776A10.762,10.762,0,0,1,431.3538,280.7982Z"/><path class="cls-4" d="M431.3538,280.7982c4.034-5.5468,9.9569-9.0255,14.93-13.5419,9.7985-8.898,20.6626-16.5747,30.03-25.9806l1.154-.1619c22.0033,6.7346,37.3036,23.7248,55.3538,36.4485,17.38,12.2516,34.151,25.3779,50.9908,38.3772,3.2705,2.5245,6.106,2.9469,9.9391,1.97,23.4748-5.9821,47-11.7672,70.5125-17.6a12.1318,12.1318,0,0,1,1.9771-.1655c1.6347-.6105,2.4941.5533,3.246,1.5864,3.4172,4.6948,6.3116,9.7319,9.3817,14.6517,1.8018,2.8875-.2765,3.3027-2.486,3.4849-28.7717,2.724-57.52,5.75-86.33,7.99-8.7243.6783-17.3595-2.4856-26.02-3.9494-22.42-3.7892-44.7932-7.85-67.1931-11.7564a34.4287,34.4287,0,0,1-9.9114-3.1487Q459.1755,294.833,431.3538,280.7982Z"/><path class="cls-1" d="M148.4019,286.1809c-7.1906,3.18-15.0177,3.5375-22.5915,4.8864-20.6378,3.6755-41.3485,6.9411-62.0042,10.52a40.8331,40.8331,0,0,1-6.41.5394c.65-1.5358,4.4556-1.9729,5.7691-2.6494,11.656-6.004,21.163-11.7445,32.5784-18.1747,4.914-2.7679,9.562-2.8973,14.6745-1.9683Q129.4052,282.7841,148.4019,286.1809Z"/><path class="cls-3" d="M676.3831,319.8669c.1862-1.086,3.3876-.1773,1.6978-2.44-4.1833-5.601-6.7114-12.3331-11.8392-17.2834a3.0577,3.0577,0,0,1,.27-.6178c6.1214-1.3563,12.2419-2.7133,18.6982-4.1448,0,8.0625,0,15.8532,0,23.644Z"/><path class="cls-5" d="M28.2966,307.07l-22.7128,4.078c0-5.055,0-10.11,0-16.0655Z"/><path class="cls-6" d="M228.93,356.62h1.4754l2.9262,6.5361,2.9146-6.5361H237.71v8.3349h-1.3672v-5.709l-2.5427,5.709h-.9475l-2.5544-5.709v5.709H228.93Z"/><path class="cls-6" d="M242.1767,358.2385a2.812,2.812,0,0,1,2.2907,1.0684v-.96h1.3792v6.6084h-1.3792v-.9834a2.845,2.845,0,0,1-2.3147,1.0918,3.1945,3.1945,0,0,1-3.0942-3.4424A3.1457,3.1457,0,0,1,242.1767,358.2385Zm.2878,1.1875a2.0277,2.0277,0,0,0-2.0029,2.1953,2.0826,2.0826,0,0,0,2.0029,2.2549,2.2374,2.2374,0,0,0,0-4.45Z"/><path class="cls-6" d="M249.0175,364.9553H247.65v-6.6084h1.3674v.96a2.1521,2.1521,0,0,1,1.9787-1.0684v1.416h-.3476c-1.0076,0-1.6311.42-1.6311,1.8223Z"/><path class="cls-6" d="M255.04,358.2385a2.8746,2.8746,0,0,1,3.0464,2.1953h-1.4751a1.5441,1.5441,0,0,0-1.5713-1.0429c-1.1032,0-1.8349.8154-1.8349,2.2539,0,1.4511.7317,2.2676,1.8349,2.2676a1.51,1.51,0,0,0,1.5713-1.044h1.4751a2.9691,2.9691,0,0,1-3.0464,2.1953,3.4173,3.4173,0,0,1,0-6.8252Z"/><path class="cls-6" d="M259.4579,356.08h1.3674v3.0342a2.6192,2.6192,0,0,1,2.0508-.876,2.5483,2.5483,0,0,1,2.6265,2.8194v3.8974h-1.3552V361.261c0-1.211-.66-1.835-1.6551-1.835a1.6021,1.6021,0,0,0-1.667,1.835v3.6943h-1.3674Z"/><path class="cls-6" d="M119.3659,357.7112h4.9052v1.1152h-3.5378v2.458h2.7583V362.4h-2.7583v3.6464h-1.3674Z"/><path class="cls-6" d="M128.3883,366.1545a3.2065,3.2065,0,0,1-3.2981-3.4189,3.165,3.165,0,0,1,3.2981-3.4063,3.0824,3.0824,0,0,1,3.2144,3.251,4.2174,4.2174,0,0,1-.0481.6709h-5.0493a1.8184,1.8184,0,0,0,1.883,1.752,1.6,1.6,0,0,0,1.5591-.9239h1.4754A3.02,3.02,0,0,1,128.3883,366.1545Zm-1.8711-4.0058h3.6582a1.716,1.716,0,0,0-1.8471-1.667A1.8,1.8,0,0,0,126.5172,362.1487Z"/><path class="cls-6" d="M136.62,359.3293a3.13,3.13,0,0,1,3.1062,3.3829,3.1892,3.1892,0,0,1-3.1062,3.4423,2.8093,2.8093,0,0,1-2.3027-1.0673v.9589H132.95v-8.875h1.3674v3.25A2.8254,2.8254,0,0,1,136.62,359.3293Zm-.3,1.1875a2.2374,2.2374,0,0,0,0,4.45,2.0842,2.0842,0,0,0,2.0151-2.2548A2.03,2.03,0,0,0,136.32,360.5168Z"/><path class="cls-6" d="M142.453,366.0461h-1.3674v-6.6084h1.3674v.96a2.1519,2.1519,0,0,1,1.9788-1.0684v1.4161h-.3477c-1.0075,0-1.6311.42-1.6311,1.8222Z"/><path class="cls-6" d="M151.6784,366.0461h-1.3672v-.792a2.4582,2.4582,0,0,1-1.9551.8877,2.5822,2.5822,0,0,1-2.7224-2.8183v-3.8858h1.3552v3.6817c0,1.2119.66,1.8349,1.655,1.8349a1.6018,1.6018,0,0,0,1.6673-1.8349v-3.6817h1.3672Z"/><path class="cls-6" d="M154.8488,366.0461h-1.3675v-6.6084h1.3675v.96a2.1521,2.1521,0,0,1,1.9787-1.0684v1.4161H156.48c-1.0076,0-1.6311.42-1.6311,1.8222Z"/><path class="cls-6" d="M160.7519,359.3293a2.8123,2.8123,0,0,1,2.2907,1.0684v-.96h1.3792v6.6084h-1.3792v-.9834a2.845,2.845,0,0,1-2.3147,1.0918,3.1944,3.1944,0,0,1-3.0942-3.4423A3.1457,3.1457,0,0,1,160.7519,359.3293Zm.2878,1.1875a2.0276,2.0276,0,0,0-2.0029,2.1954,2.0824,2.0824,0,0,0,2.0029,2.2548,2.2374,2.2374,0,0,0,0-4.45Z"/><path class="cls-6" d="M167.5927,366.0461h-1.3675v-6.6084h1.3675v.96a2.1519,2.1519,0,0,1,1.9787-1.0684v1.4161h-.3476c-1.0076,0-1.6311.42-1.6311,1.8222Z"/><path class="cls-6" d="M175.3666,359.4377h1.415l-4.0537,9.7149h-1.4153l1.3433-3.2149-2.6025-6.5h1.5232l1.8591,5.0372Z"/><path class="cls-6" d="M31.0683,356.425h1.3794v6.0079a2.2854,2.2854,0,0,1-2.4588,2.4111,2.2853,2.2853,0,0,1-2.4587-2.4111H28.91c.0119.6962.3476,1.2,1.0793,1.2s1.0794-.504,1.0794-1.2Z"/><path class="cls-6" d="M37.3324,358.0442a2.8116,2.8116,0,0,1,2.2908,1.0674v-.96h1.3791V364.76H39.6232v-.9834a2.8451,2.8451,0,0,1-2.3147,1.0918,3.1945,3.1945,0,0,1-3.0942-3.4424A3.1448,3.1448,0,0,1,37.3324,358.0442Zm.2879,1.1865a2.0278,2.0278,0,0,0-2.003,2.1953,2.0826,2.0826,0,0,0,2.003,2.2549,2.2374,2.2374,0,0,0,0-4.45Z"/><path class="cls-6" d="M47.4953,361.0657c0-1.211-.66-1.835-1.6551-1.835a1.6022,1.6022,0,0,0-1.667,1.835V364.76H42.8058v-6.6084h1.3674v.7559a2.54,2.54,0,0,1,1.9668-.8633,2.573,2.573,0,0,1,2.71,2.8183V364.76H47.4953Z"/><path class="cls-6" d="M56.5785,364.76H55.2113v-.792a2.458,2.458,0,0,1-1.955.8877,2.5823,2.5823,0,0,1-2.7225-2.8183v-3.8858h1.3553v3.6816c0,1.212.66,1.835,1.655,1.835a1.6017,1.6017,0,0,0,1.6672-1.835v-3.6816h1.3672Z"/><path class="cls-6" d="M61.0441,358.0442a2.8117,2.8117,0,0,1,2.2908,1.0674v-.96H64.714V364.76H63.3349v-.9834a2.8453,2.8453,0,0,1-2.3147,1.0918,3.1945,3.1945,0,0,1-3.0943-3.4424A3.1449,3.1449,0,0,1,61.0441,358.0442Zm.2878,1.1865a2.0276,2.0276,0,0,0-2.0029,2.1953,2.0824,2.0824,0,0,0,2.0029,2.2549,2.2374,2.2374,0,0,0,0-4.45Z"/><path class="cls-6" d="M67.8849,364.76H66.5175v-6.6084h1.3674v.96a2.1512,2.1512,0,0,1,1.9788-1.0674v1.415H69.516c-1.0076,0-1.6311.42-1.6311,1.8223Z"/><path class="cls-6" d="M75.6591,358.1516h1.415L73.02,367.8665H71.6051l1.3433-3.2149-2.6025-6.5H71.869l1.8589,5.0371Z"/><path class="cls-6" d="M332.9626,363.9768h-3.49l-.6,1.7031h-1.4272l2.9863-8.3476h1.583l2.9863,8.3476h-1.4389Zm-1.7393-4.9893-1.3672,3.8741h2.7227Z"/><path class="cls-6" d="M339.9713,358.9641a3.1358,3.1358,0,0,1,3.106,3.3818,3.1892,3.1892,0,0,1-3.106,3.4424,2.9843,2.9843,0,0,1-2.3027-1.0683v4.1025h-1.3677v-9.751h1.3677v.9717A2.8823,2.8823,0,0,1,339.9713,358.9641Zm-.3,1.1865a2.2375,2.2375,0,0,0,0,4.45,2.0842,2.0842,0,0,0,2.0152-2.2549A2.03,2.03,0,0,0,339.671,360.1506Z"/><path class="cls-6" d="M345.8043,365.68h-1.3676v-6.6084h1.3676v.96a2.1509,2.1509,0,0,1,1.9786-1.0674v1.415h-.3477c-1.0073,0-1.6309.42-1.6309,1.8223Z"/><path class="cls-6" d="M348.8649,357.3206a.87.87,0,1,1,.8755.8759A.8654.8654,0,0,1,348.8649,357.3206Zm.18,1.7509h1.3677V365.68h-1.3677Z"/><path class="cls-6" d="M352.2126,356.8049H353.58v8.875h-1.3676Z"/><path d="M443.2248,128.9534h-4.9014l-1.0422,2.7324h-.3238l3.6758-9.6192h.2817l3.6619,9.6192h-.324Zm-2.4507-6.4366L438.422,128.7h4.7041Z"/><path d="M446.5165,124.3625h-1.2393V124.08h1.2393V122.137h.2817V124.08h2.3943v.2822h-2.3943v5.3233c0,1.3662.4366,1.7187,1.5916,1.7187h.8027v.2813h-.831c-1.2957,0-1.845-.5215-1.845-2Z"/><path d="M451.2746,124.3625h-1.2393V124.08h1.2393V122.137h.2817V124.08h2.3943v.2822h-2.3943v5.3233c0,1.3662.4365,1.7187,1.5916,1.7187h.8027v.2813H453.12c-1.2956,0-1.8449-.5215-1.8449-2Z"/><path d="M459.0187,131.7844a3.9092,3.9092,0,0,1,0-7.8027,3.2712,3.2712,0,0,1,3.4927,3.2676c0,.3662,0,.5068-.0139.7607h-6.8589a3.276,3.276,0,0,0,3.38,3.52,2.9821,2.9821,0,0,0,3.2112-2.4219h.2815A3.241,3.241,0,0,1,459.0187,131.7844Zm-3.38-4.0283h6.6194a3.0888,3.0888,0,0,0-3.2393-3.52A3.2487,3.2487,0,0,0,455.6386,127.7561Z"/><path d="M470.6056,127.2209c0-2.0273-1.1125-3.0556-2.7886-3.0556-1.7324,0-2.9858,1.0986-2.9858,3.4785v4.042H464.55V124.08h.2817v2.0147a2.85,2.85,0,0,1,2.9858-2.1836c1.6619,0,3.0562.9863,3.0562,3.3379v4.4365h-.2676Z"/><path d="M476.5453,123.9817a3.4108,3.4108,0,0,1,3.4365,2.4228v-5.1406h.2676v10.4219h-.2676v-2.3379a3.4061,3.4061,0,0,1-3.4365,2.4365,3.9066,3.9066,0,0,1,0-7.8027Zm0,.2539c-2.0845,0-3.4223,1.38-3.4223,3.6475s1.3378,3.6474,3.4223,3.6474a3.6539,3.6539,0,0,0,0-7.2949Z"/><path d="M485.9911,123.9817a3.4108,3.4108,0,0,1,3.4365,2.4228V124.08h.2676v7.6055h-.2676v-2.3242a3.4108,3.4108,0,0,1-3.4365,2.4228,3.9066,3.9066,0,0,1,0-7.8027Zm0,.2539c-2.0845,0-3.4223,1.38-3.4223,3.6475s1.3378,3.6474,3.4223,3.6474a3.6539,3.6539,0,0,0,0-7.2949Z"/><path d="M498.1413,127.2209c0-2.0273-1.1126-3.0556-2.7886-3.0556-1.7324,0-2.9859,1.0986-2.9859,3.4785v4.042h-.2817V124.08h.2817v2.0147a2.85,2.85,0,0,1,2.9859-2.1836c1.6619,0,3.0561.9863,3.0561,3.3379v4.4365h-.2675Z"/><path d="M504.0387,123.9817a3.2418,3.2418,0,0,1,3.4927,2.6758H507.25a2.9821,2.9821,0,0,0-3.2112-2.4219,3.658,3.658,0,0,0,0,7.2949,2.9821,2.9821,0,0,0,3.2112-2.4219h.2815a3.241,3.241,0,0,1-3.4927,2.6758,3.9092,3.9092,0,0,1,0-7.8027Z"/><path d="M512.8793,131.7844a3.9092,3.9092,0,0,1,0-7.8027,3.2714,3.2714,0,0,1,3.4929,3.2676c0,.3662,0,.5068-.0141.7607h-6.8589a3.276,3.276,0,0,0,3.38,3.52,2.9819,2.9819,0,0,0,3.2112-2.4219h.2817A3.2414,3.2414,0,0,1,512.8793,131.7844Zm-3.38-4.0283h6.6194a3.0887,3.0887,0,0,0-3.2393-3.52A3.2487,3.2487,0,0,0,509.4992,127.7561Z"/><path class="cls-6" d="M426.5819,357.6125h1.4754l2.9262,6.5362,2.9146-6.5362h1.4631v8.335H433.994v-5.709l-2.5427,5.709h-.9475l-2.5544-5.709v5.709h-1.3675Z"/><path class="cls-6" d="M439.8283,359.2307a2.8118,2.8118,0,0,1,2.2907,1.0684v-.96h1.3792v6.6084H442.119v-.9834a2.845,2.845,0,0,1-2.3147,1.0918,3.1945,3.1945,0,0,1-3.0942-3.4424A3.1458,3.1458,0,0,1,439.8283,359.2307Zm.2878,1.1875a2.0277,2.0277,0,0,0-2.0029,2.1953,2.0826,2.0826,0,0,0,2.0029,2.2549,2.2374,2.2374,0,0,0,0-4.45Z"/><path class="cls-6" d="M449.8354,359.3391h1.415l-4.0537,9.7149h-1.4153l1.3433-3.2149-2.6026-6.5h1.5232l1.8591,5.0371Z"/><path class="cls-6" d="M527.7057,358.2444h1.3794v6.0078a2.4592,2.4592,0,0,1-4.9175,0h1.3794c.012.6963.3477,1.2,1.0794,1.2s1.0793-.5039,1.0793-1.2Z"/><path class="cls-6" d="M537.2921,366.5793H535.925v-.7919a2.4584,2.4584,0,0,1-1.9551.8876,2.5822,2.5822,0,0,1-2.7224-2.8183v-3.8858h1.3552v3.6817c0,1.2119.66,1.8349,1.655,1.8349a1.6018,1.6018,0,0,0,1.6673-1.8349v-3.6817h1.3671Z"/><path class="cls-6" d="M543.7848,362.885c0-1.2109-.66-1.835-1.655-1.835a1.6021,1.6021,0,0,0-1.667,1.835v3.6943h-1.3674v-6.6084h1.3674v.7559a2.5415,2.5415,0,0,1,1.9668-.8643,2.5738,2.5738,0,0,1,2.71,2.8194v3.8974h-1.3552Z"/><path class="cls-6" d="M549.7255,366.6877a3.2065,3.2065,0,0,1-3.2981-3.4189,3.165,3.165,0,0,1,3.2981-3.4063,3.0822,3.0822,0,0,1,3.2141,3.251,4.2171,4.2171,0,0,1-.0479.6709h-5.0493a1.8184,1.8184,0,0,0,1.8831,1.752,1.6,1.6,0,0,0,1.5591-.9239H552.76A3.02,3.02,0,0,1,549.7255,366.6877Zm-1.8709-4.0058h3.658a1.7161,1.7161,0,0,0-1.8472-1.667A1.7992,1.7992,0,0,0,547.8546,362.6819Z"/><path class="cls-6" d="M624.13,358.2444H625.51v6.0078a2.4592,2.4592,0,0,1-4.9175,0h1.3794c.0119.6963.3476,1.2,1.0793,1.2s1.0794-.5039,1.0794-1.2Z"/><path class="cls-6" d="M633.7167,366.5793H632.35v-.7919a2.4583,2.4583,0,0,1-1.9551.8876,2.5822,2.5822,0,0,1-2.7224-2.8183v-3.8858h1.3552v3.6817c0,1.2119.66,1.8349,1.6551,1.8349a1.6017,1.6017,0,0,0,1.6672-1.8349v-3.6817h1.3672Z"/><path class="cls-6" d="M635.52,357.7043h1.3675v8.875H635.52Z"/><path class="cls-6" d="M643.2213,359.9709h1.4151l-4.0537,9.7149h-1.4153l1.3432-3.2149-2.6025-6.5h1.5232l1.8591,5.0372Z"/><path d="M304.6625,128.9524h-4.9014l-1.0422,2.7324h-.3237l3.6757-9.6191h.2818l3.6619,9.6191h-.324Zm-2.4507-6.4365L299.86,128.7h4.7041Z"/><path d="M310.081,131.7834c-1.6055,0-2.7464-.62-2.9153-2.0419h.2817c.1126,1.0986.9859,1.788,2.6477,1.788a1.8669,1.8669,0,0,0,2.07-1.7461c0-2.3378-4.76-.9716-4.76-3.9013a2.165,2.165,0,0,1,2.38-1.9014,2.3258,2.3258,0,0,1,2.62,2.1836h-.2817a2.0577,2.0577,0,0,0-2.3379-1.93,1.9067,1.9067,0,0,0-2.0986,1.6475c0,2.6621,4.7463,1.2676,4.7463,3.9013A2.1491,2.1491,0,0,1,310.081,131.7834Z"/><path d="M316.88,131.7834c-1.6055,0-2.7464-.62-2.9153-2.0419h.2817c.1126,1.0986.9859,1.788,2.6477,1.788a1.8669,1.8669,0,0,0,2.07-1.7461c0-2.3378-4.76-.9716-4.76-3.9013a2.165,2.165,0,0,1,2.38-1.9014,2.3258,2.3258,0,0,1,2.62,2.1836h-.2817a2.0577,2.0577,0,0,0-2.3379-1.93,1.9067,1.9067,0,0,0-2.0986,1.6475c0,2.6621,4.7463,1.2676,4.7463,3.9013A2.1491,2.1491,0,0,1,316.88,131.7834Z"/><path d="M321.0036,121.7561a.3664.3664,0,1,1,.3662.38A.359.359,0,0,1,321.0036,121.7561Zm.2253,2.3232h.2817v7.6055h-.2817Z"/><path d="M327.2555,123.9807a3.4211,3.4211,0,0,1,3.4365,2.3945v-2.2959h.2676v7.8868a3.2783,3.2783,0,0,1-3.3659,3.4365,3.43,3.43,0,0,1-3.5352-2.4785h.2817a3.1432,3.1432,0,0,0,3.2535,2.2256,3.01,3.01,0,0,0,3.0983-3.1836v-2.5909a3.416,3.416,0,0,1-3.4365,2.4082,3.9066,3.9066,0,0,1,0-7.8027Zm0,.2539c-2.0845,0-3.4223,1.38-3.4223,3.6475s1.3378,3.6474,3.4223,3.6474a3.6539,3.6539,0,0,0,0-7.2949Z"/><path d="M339.4057,127.22c0-2.0274-1.1126-3.0557-2.7886-3.0557-1.7324,0-2.9858,1.0986-2.9858,3.4785v4.042H333.35v-7.6055h.2818v2.0147a2.85,2.85,0,0,1,2.9858-2.1836c1.6619,0,3.0561.9863,3.0561,3.3379v4.4365h-.2675Z"/><path d="M353.528,127.22c0-2.0274-1.0423-3.0557-2.6338-3.0557-1.6338,0-2.8591,1.1543-2.8591,3.5488v3.9717h-.2676V127.22c0-2.0274-1.0423-3.0557-2.6336-3.0557-1.6479,0-2.8591,1.1543-2.8591,3.5488v3.9717h-.2817v-7.6055h.2817v2.0147a2.7625,2.7625,0,0,1,2.8591-2.1836,2.6865,2.6865,0,0,1,2.8167,2.4082,2.826,2.826,0,0,1,2.9436-2.4082c1.5774,0,2.9014.9863,2.9014,3.3379v4.4365h-.2676Z"/><path d="M359.4228,131.7834a3.9092,3.9092,0,0,1,0-7.8027,3.2714,3.2714,0,0,1,3.4929,3.2676c0,.3662,0,.5068-.0142.7607h-6.8589a3.2761,3.2761,0,0,0,3.38,3.5205,2.9819,2.9819,0,0,0,3.2111-2.4218h.2818A3.2415,3.2415,0,0,1,359.4228,131.7834Zm-3.38-4.0283h6.6194a3.0886,3.0886,0,0,0-3.2392-3.52A3.2487,3.2487,0,0,0,356.0426,127.7551Z"/><path d="M371.01,127.22c0-2.0274-1.1126-3.0557-2.7886-3.0557-1.7324,0-2.9858,1.0986-2.9858,3.4785v4.042h-.2818v-7.6055h.2818v2.0147a2.85,2.85,0,0,1,2.9858-2.1836c1.6619,0,3.0561.9863,3.0561,3.3379v4.4365H371.01Z"/><path d="M373.921,124.3616h-1.2392v-.2823h1.2392V122.136h.2818v1.9433h2.3943v.2823h-2.3943v5.3232c0,1.3662.4365,1.7188,1.5915,1.7188h.8028v.2812h-.8311c-1.2956,0-1.845-.5215-1.845-2Z"/><path d="M380.8061,131.7834c-1.6055,0-2.7464-.62-2.9153-2.0419h.2817c.1126,1.0986.9859,1.788,2.6477,1.788a1.8669,1.8669,0,0,0,2.07-1.7461c0-2.3378-4.76-.9716-4.76-3.9013a2.165,2.165,0,0,1,2.38-1.9014,2.3258,2.3258,0,0,1,2.62,2.1836h-.2817a2.0577,2.0577,0,0,0-2.3379-1.93,1.9067,1.9067,0,0,0-2.0986,1.6475c0,2.6621,4.7463,1.2676,4.7463,3.9013A2.1491,2.1491,0,0,1,380.8061,131.7834Z"/><path d="M187.8478,122.0247h-4.5632v4.5771h4.1406v.2529h-4.1406v4.5772h4.5632v.2539h-4.845v-9.9151h4.845Z"/><path d="M191.4643,128.0666l-2.31,3.6192h-.31l2.4507-3.8731-2.4084-3.7324h.3239l2.2818,3.5352L193.76,124.08h.2959l-2.4084,3.7891,2.4648,3.8164h-.324Z"/><path d="M198.9118,131.7844a3.9092,3.9092,0,0,1,0-7.8027,3.2711,3.2711,0,0,1,3.4926,3.2676c0,.3662,0,.5068-.0139.7607h-6.8589a3.2761,3.2761,0,0,0,3.38,3.52,2.9822,2.9822,0,0,0,3.2112-2.4219h.2814A3.241,3.241,0,0,1,198.9118,131.7844Zm-3.38-4.0283h6.6194a3.0887,3.0887,0,0,0-3.2392-3.52A3.2487,3.2487,0,0,0,195.5316,127.7561Z"/><path d="M204.7243,131.6858h-.2818V124.08h.2818v1.8447c.2959-1.3232,1.2956-2.0136,3-2.0136v.3095h-.127a2.6687,2.6687,0,0,0-2.873,2.9444Z"/><path d="M212.5106,123.9817a3.2423,3.2423,0,0,1,3.493,2.6758h-.2818a2.9819,2.9819,0,0,0-3.2112-2.4219,3.658,3.658,0,0,0,0,7.2949,2.9819,2.9819,0,0,0,3.2112-2.4219h.2818a3.2415,3.2415,0,0,1-3.493,2.6758,3.9092,3.9092,0,0,1,0-7.8027Z"/><path d="M217.8161,121.7571a.3664.3664,0,1,1,.3662.38A.3589.3589,0,0,1,217.8161,121.7571Zm.2253,2.3232h.2817v7.6055h-.2817Z"/><path d="M223.1667,131.7844c-1.6055,0-2.7464-.62-2.9153-2.042h.2815c.1128,1.0987.986,1.7881,2.6479,1.7881a1.8669,1.8669,0,0,0,2.07-1.7461c0-2.3379-4.7605-.9717-4.7605-3.9013a2.165,2.165,0,0,1,2.38-1.9014,2.3256,2.3256,0,0,1,2.6194,2.1836h-.2815a2.0577,2.0577,0,0,0-2.3379-1.93,1.9069,1.9069,0,0,0-2.0986,1.6475c0,2.6621,4.7463,1.2675,4.7463,3.9013A2.1491,2.1491,0,0,1,223.1667,131.7844Z"/><path d="M230.8251,131.7844a3.9092,3.9092,0,0,1,0-7.8027,3.2714,3.2714,0,0,1,3.4929,3.2676c0,.3662,0,.5068-.0141.7607H227.445a3.276,3.276,0,0,0,3.38,3.52,2.9819,2.9819,0,0,0,3.2112-2.4219h.2817A3.2414,3.2414,0,0,1,230.8251,131.7844Zm-3.38-4.0283h6.6194a3.0887,3.0887,0,0,0-3.2393-3.52A3.2487,3.2487,0,0,0,227.445,127.7561Z"/><path d="M238.8065,131.7844c-1.6054,0-2.7463-.62-2.9152-2.042h.2817c.1125,1.0987.9858,1.7881,2.6477,1.7881a1.8669,1.8669,0,0,0,2.07-1.7461c0-2.3379-4.76-.9717-4.76-3.9013a2.165,2.165,0,0,1,2.38-1.9014,2.3258,2.3258,0,0,1,2.62,2.1836h-.2817a2.0577,2.0577,0,0,0-2.3379-1.93,1.9067,1.9067,0,0,0-2.0986,1.6475c0,2.6621,4.7463,1.2675,4.7463,3.9013A2.1492,2.1492,0,0,1,238.8065,131.7844Z"/><path class="cls-3" d="M50.2057,305.2537l9.3262-4.5794-28.897,6.04h0l-2.3384.3559c-7.8271-.0683-15.6294.003-22.7124,4.0779q-.016,8.3867-.0317,16.7732c5.1655-2.5907,10.3491-5.146,15.4922-7.78q11.0588-5.6631,22.0693-11.42l.023.0038,6.312-3.0992A1.0852,1.0852,0,0,0,50.2057,305.2537Z"/><circle class="cls-7" cx="168.8964" cy="127.8049" r="7.5963"/><circle class="cls-8" cx="284.3095" cy="127.8049" r="7.5963"/><circle class="cls-9" cx="422.2002" cy="127.8049" r="7.5963"/></svg>