<svg id="Layer_1" data-name="Layer 1" xmlns="http://www.w3.org/2000/svg" viewBox="0 0 384.4404 337.8716"><defs><style>.cls-1{fill:#ffa95a;}.cls-2{fill:#fff;}.cls-3{fill:#3686ff;}</style></defs><path class="cls-1" d="M192.1759,13.4515A154.1245,154.1245,0,0,0,38.136,162.5974l154.04,7.1843L261.5931,305.22a154.146,154.146,0,0,0-69.4172-291.768Z"/><path class="cls-2" d="M200.0387,100.6152h-4.3736l-.7236,2.0922H192.629l3.9487-10.9965h2.564l3.9487,10.9965h-2.3281Zm-2.187-6.3555-1.5889,4.5932h3.1777Z"/><path class="cls-2" d="M209.648,93.8505c2.2339,0,3.98,1.7461,3.98,4.4678s-1.7461,4.5307-3.98,4.5307a3.5575,3.5575,0,0,1-2.8789-1.3842v5.396h-2.2026V93.9921h2.2026V95.25A3.4815,3.4815,0,0,1,209.648,93.8505Zm-.582,1.9351a2.58,2.58,0,0,0,0,5.1284,2.384,2.384,0,0,0,2.3125-2.5957A2.3272,2.3272,0,0,0,209.066,95.7856Z"/><path class="cls-2" d="M220.3111,93.8505c2.2339,0,3.98,1.7461,3.98,4.4678s-1.7461,4.5307-3.98,4.5307a3.5575,3.5575,0,0,1-2.8789-1.3842v5.396H215.23V93.9921h2.2026V95.25A3.4815,3.4815,0,0,1,220.3111,93.8505Zm-.582,1.9351a2.58,2.58,0,0,0,0,5.1284,2.384,2.384,0,0,0,2.3125-2.5957A2.3272,2.3272,0,0,0,219.7291,95.7856Z"/><path class="cls-2" d="M228.0958,102.7074h-2.2026V93.9921h2.2026v1.353a3.0219,3.0219,0,0,1,2.6743-1.479v2.3125h-.582c-1.3057,0-2.0923.5034-2.0923,2.187Z"/><path class="cls-2" d="M236.1173,102.849a4.4994,4.4994,0,1,1,4.5464-4.4995A4.3575,4.3575,0,0,1,236.1173,102.849Zm0-1.9194a2.32,2.32,0,0,0,2.2812-2.58,2.257,2.257,0,1,0-4.4677,0C233.9308,100.08,234.9376,100.93,236.1173,100.93Z"/><path class="cls-2" d="M243.713,93.9921l2.2026,6.686,2.2022-6.686h2.3442l-3.2251,8.7153h-2.6743l-3.2095-8.7153Z"/><path class="cls-2" d="M255.5094,102.849a4.5011,4.5011,0,0,1,0-8.9985,4.0917,4.0917,0,0,1,4.2949,4.3106,5.1268,5.1268,0,0,1-.063.85H253.37a2.0393,2.0393,0,0,0,2.0923,2.0136,1.7962,1.7962,0,0,0,1.7466-1.0542h2.3755A4.0513,4.0513,0,0,1,255.5094,102.849Zm-2.1236-5.3173h4.1372a1.9362,1.9362,0,0,0-2.0766-1.8721A2.0237,2.0237,0,0,0,253.3858,97.5317Z"/><path class="cls-2" d="M264.836,93.8505a3.5748,3.5748,0,0,1,2.8472,1.353V91.0658h2.2339v11.6416h-2.2339v-1.29a3.2933,3.2933,0,0,1-2.8628,1.4316c-2.2183,0-3.9805-1.809-3.9805-4.5307S262.6021,93.8505,264.836,93.8505Zm.55,1.9351a2.3241,2.3241,0,0,0-2.2964,2.5327,2.3814,2.3814,0,0,0,2.2964,2.5957,2.5778,2.5778,0,0,0,0-5.1284Z"/><path class="cls-2" d="M201.7975,118.4438a1.8615,1.8615,0,0,0-2.0054-1.7456c-1.8164,0-2.5239,1.5337-2.5474,4.86a4.2085,4.2085,0,0,1,3.6563-1.77c2.9961,0,5.1191,1.958,5.1191,5.5439,0,3.42-2.17,5.7793-5.874,5.7793-5.19,0-6.4639-3.68-6.4639-8.8227,0-5.8975,1.84-8.8462,6.2989-8.8462a5.1834,5.1834,0,0,1,5.5673,5.001Zm-4.2227,6.8413a2.1972,2.1972,0,0,0,2.4063,2.4062,2.3612,2.3612,0,0,0-.0474-4.7182A2.1886,2.1886,0,0,0,197.5748,125.2851Z"/><path class="cls-2" d="M219.3023,113.82v2.9961l-5.9213,14.2012h-4.128l5.9917-13.7529h-7.3364V113.82Z"/><path class="cls-2" d="M224.54,114.1508a3.9868,3.9868,0,1,1-3.9394,3.9863A3.6721,3.6721,0,0,1,224.54,114.1508Zm-1.1557,3.9863c0,1.1089.4243,1.6045,1.1323,1.6045s1.1558-.4956,1.1558-1.6045c0-1.1323-.4483-1.6274-1.1558-1.6274S223.3844,117.0048,223.3844,118.1371Zm9.3413-3.727h3.8926l-9.0821,16.6074h-3.8926Zm3.02,8.8935a3.9872,3.9872,0,1,1-3.916,3.9868A3.6606,3.6606,0,0,1,235.7452,123.3036Zm-1.1558,3.9868c0,1.1084.4249,1.6041,1.1324,1.6041s1.1557-.4957,1.1557-1.6041-.4482-1.6279-1.1557-1.6279S234.5894,126.1816,234.5894,127.29Z"/><path class="cls-3" d="M186.4154,178.26,38.22,171.3483c-.05,1.5779-.0835,3.16-.0835,4.75a148.3652,148.3652,0,0,0,215.0725,132.48Z"/><path class="cls-2" d="M119.9386,212.7138V223.71h-2.2027l-4.9868-7.5357V223.71h-2.2026V212.7138h2.2026l4.9868,7.5513v-7.5513Z"/><path class="cls-2" d="M125.9762,223.852a4.4994,4.4994,0,1,1,4.5464-4.5A4.3575,4.3575,0,0,1,125.9762,223.852Zm0-1.9195a2.32,2.32,0,0,0,2.2812-2.58,2.2572,2.2572,0,1,0-4.4682,0C123.7892,221.0829,124.796,221.9325,125.9762,221.9325Z"/><path class="cls-2" d="M132.4864,216.8041h-1.0386V214.995h1.0386V212.84h2.2183v2.1552h1.9507v1.8091h-1.9507V221.02c0,.5821.2358.8335.9282.8335h1.0225V223.71h-1.3843c-1.668,0-2.7847-.708-2.7847-2.7061Z"/><path class="cls-2" d="M113.9605,233.727a3.4474,3.4474,0,0,1,2.8789,1.3842v-1.2426h2.2178v8.7153h-2.2178V241.31a3.4373,3.4373,0,0,1-2.895,1.416c-2.2021,0-3.9643-1.8091-3.9643-4.5308S111.7423,233.727,113.9605,233.727Zm.566,1.935a2.3246,2.3246,0,0,0-2.2969,2.5327,2.3817,2.3817,0,0,0,2.2969,2.5957,2.5779,2.5779,0,0,0,0-5.1284Z"/><path class="cls-2" d="M126.2916,233.727c2.2339,0,3.98,1.7461,3.98,4.4677s-1.7461,4.5308-3.98,4.5308a3.5574,3.5574,0,0,1-2.8789-1.3843v5.396H121.21V233.8686h2.2026v1.2583A3.4814,3.4814,0,0,1,126.2916,233.727Zm-.582,1.935a2.58,2.58,0,0,0,0,5.1284,2.3839,2.3839,0,0,0,2.3125-2.5957A2.3273,2.3273,0,0,0,125.71,235.662Z"/><path class="cls-2" d="M136.9547,233.727c2.2339,0,3.98,1.7461,3.98,4.4677s-1.7461,4.5308-3.98,4.5308a3.5573,3.5573,0,0,1-2.8789-1.3843v5.396h-2.2027V233.8686h2.2027v1.2583A3.4814,3.4814,0,0,1,136.9547,233.727Zm-.582,1.935a2.58,2.58,0,0,0,0,5.1284,2.3839,2.3839,0,0,0,2.3125-2.5957A2.3273,2.3273,0,0,0,136.3727,235.662Z"/><path class="cls-2" d="M144.7394,242.5839h-2.2027v-8.7153h2.2027v1.353a3.0214,3.0214,0,0,1,2.6743-1.479v2.3125h-.5821c-1.3056,0-2.0922.5034-2.0922,2.187Z"/><path class="cls-2" d="M152.7608,242.7255a4.4994,4.4994,0,1,1,4.5464-4.5A4.3575,4.3575,0,0,1,152.7608,242.7255Zm0-1.9194a2.32,2.32,0,0,0,2.2813-2.58,2.2571,2.2571,0,1,0-4.4678,0C150.5743,239.9565,151.5811,240.8061,152.7608,240.8061Z"/><path class="cls-2" d="M160.3565,233.8686l2.2027,6.686,2.2021-6.686h2.3443l-3.2251,8.7153h-2.6744l-3.2094-8.7153Z"/><path class="cls-2" d="M172.1529,242.7255a4.5011,4.5011,0,0,1,0-8.9985,4.0917,4.0917,0,0,1,4.2949,4.31,5.1375,5.1375,0,0,1-.0629.85h-6.3716a2.0392,2.0392,0,0,0,2.0923,2.0137,1.7962,1.7962,0,0,0,1.7465-1.0542h2.3755A4.0511,4.0511,0,0,1,172.1529,242.7255Zm-2.1235-5.3174h4.1372a1.9362,1.9362,0,0,0-2.0767-1.872A2.0234,2.0234,0,0,0,170.0294,237.4081Z"/><path class="cls-2" d="M181.48,233.727a3.5746,3.5746,0,0,1,2.8472,1.353v-4.1377h2.2338v11.6416h-2.2338v-1.29a3.2936,3.2936,0,0,1-2.8628,1.4316c-2.2183,0-3.9805-1.8091-3.9805-4.5308S179.2457,233.727,181.48,233.727Zm.55,1.935a2.3242,2.3242,0,0,0-2.2964,2.5327A2.3814,2.3814,0,0,0,182.03,240.79a2.5778,2.5778,0,0,0,0-5.1284Z"/><path class="cls-2" d="M116.5382,253.2724c3.6328,0,5.5908,2.0757,5.5908,4.67a3.9048,3.9048,0,0,1-2.5952,3.8691v.0943a4.0235,4.0235,0,0,1,2.9018,4.1518c0,2.9014-2.0761,4.9776-5.685,4.9776-3.586,0-6.1807-1.6988-6.2988-5.5909h3.916a2.0586,2.0586,0,0,0,2.2412,2.2413,1.7962,1.7962,0,0,0,1.9341-1.9346c0-1.5332-.92-2.147-3.02-2.147h-.7549v-3.2788h.7549c1.3682,0,2.6895-.33,2.6895-1.8872a1.6319,1.6319,0,0,0-1.7695-1.793,1.7922,1.7922,0,0,0-1.84,1.8872h-3.9394C110.8058,255.1357,113.023,253.2724,116.5382,253.2724Z"/><path class="cls-2" d="M130.8111,253.2724c3.6328,0,5.5908,2.0757,5.5908,4.67a3.9048,3.9048,0,0,1-2.5952,3.8691v.0943a4.0236,4.0236,0,0,1,2.9019,4.1518c0,2.9014-2.0762,4.9776-5.6851,4.9776-3.5859,0-6.1806-1.6988-6.2988-5.5909h3.916a2.0586,2.0586,0,0,0,2.2412,2.2413,1.7962,1.7962,0,0,0,1.9341-1.9346c0-1.5332-.92-2.147-3.0195-2.147h-.7549v-3.2788h.7549c1.3681,0,2.6894-.33,2.6894-1.8872a1.6317,1.6317,0,0,0-1.769-1.793,1.7923,1.7923,0,0,0-1.84,1.8872h-3.9395C125.0787,255.1357,127.296,253.2724,130.8111,253.2724Z"/><path class="cls-2" d="M142.6778,254.0273a3.9868,3.9868,0,1,1-3.9394,3.9863A3.672,3.672,0,0,1,142.6778,254.0273Zm-1.1557,3.9863c0,1.1089.4243,1.6045,1.1323,1.6045s1.1558-.4956,1.1558-1.6045c0-1.1323-.4483-1.6275-1.1558-1.6275S141.5221,256.8813,141.5221,258.0136Zm9.3413-3.7271h3.8926l-9.0821,16.6075h-3.8926Zm3.0195,8.8936a3.9872,3.9872,0,1,1-3.916,3.9868A3.6605,3.6605,0,0,1,153.8829,263.18Zm-1.1558,3.9868c0,1.1084.4248,1.604,1.1324,1.604s1.1557-.4956,1.1557-1.604-.4482-1.6279-1.1557-1.6279S152.7271,266.058,152.7271,267.1669Z"/></svg>